<?xml version="1.0" encoding="UTF-8" standalone="no"?>
<!-- Created with Inkscape (http://www.inkscape.org/) -->

<svg
   width="24"
   height="24"
   viewBox="0 0 24 24"
   version="1.1"
   id="svg1"
   inkscape:version="1.4 (e7c3feb1, 2024-10-09)"
   sodipodi:docname="symbols.svg"
   xmlns:inkscape="http://www.inkscape.org/namespaces/inkscape"
   xmlns:sodipodi="http://sodipodi.sourceforge.net/DTD/sodipodi-0.dtd"
   xmlns="http://www.w3.org/2000/svg"
   xmlns:svg="http://www.w3.org/2000/svg">
  <sodipodi:namedview
     id="namedview1"
     pagecolor="#ffffff"
     bordercolor="#666666"
     borderopacity="1.0"
     inkscape:showpageshadow="2"
     inkscape:pageopacity="0.0"
     inkscape:pagecheckerboard="0"
     inkscape:deskcolor="#d1d1d1"
     inkscape:document-units="mm"
     showgrid="true"
     inkscape:zoom="27.064766"
     inkscape:cx="11.915861"
     inkscape:cy="13.246004"
     inkscape:window-width="1512"
     inkscape:window-height="922"
     inkscape:window-x="0"
     inkscape:window-y="32"
     inkscape:window-maximized="0"
     inkscape:current-layer="layer1">
    <inkscape:grid
       id="grid1"
       units="px"
       originx="-12"
       originy="-12"
       spacingx="1"
       spacingy="1"
       empcolor="#0099e5"
       empopacity="0.30196078"
       color="#0099e5"
       opacity="0.14901961"
       empspacing="4"
       enabled="true"
       visible="true" />
  </sodipodi:namedview>
  <defs
     id="defs1" />
  <g
     inkscape:label="Layer 1"
     inkscape:groupmode="layer"
     id="layer1">
    <path
       style="fill:none;stroke:#800000;stroke-width:1;stroke-linecap:round;stroke-linejoin:miter;stroke-dasharray:none;stroke-opacity:1;paint-order:normal"
       d="m 9,19.5 v -15 c 0,0 5,-0.5 5,4 0,4 -4,4 -4,4 m 1,0 4,7"
       id="path1"
       sodipodi:nodetypes="ccsccc" />
    <path
       style="fill:none;stroke:#ffff00;stroke-width:1;stroke-linecap:round;stroke-linejoin:miter;stroke-dasharray:none;stroke-opacity:1;paint-order:normal"
       d="m 10,4.5 v 15 h 6"
       id="path2" />
    <path
       style="fill:none;stroke:#000000;stroke-width:1;stroke-linecap:round;stroke-linejoin:round;stroke-dasharray:none;stroke-opacity:1;paint-order:normal"
       d="m 9,8.5 4,-4 v 15"
       id="path3"
       sodipodi:nodetypes="ccc" />
    <path
       style="fill:none;stroke:#000000;stroke-width:1;stroke-linecap:round;stroke-linejoin:miter;stroke-dasharray:none;stroke-opacity:1;paint-order:normal"
       d="m 9,8.5 c 0,0 0,-4 3,-4 2,0 3,1.6843666 3,4 -0.08779,1.618313 -0.949473,2.823031 -1.770956,4.14234 C 11.54943,15.345065 9,19.5 9,19.5 h 7"
       id="path4"
       sodipodi:nodetypes="cssscc" />
    <path
       id="path6"
       style="fill:none;stroke:#000000;stroke-width:0.963968;stroke-linecap:round;stroke-linejoin:miter;stroke-dasharray:none;stroke-opacity:1;paint-order:normal"
       d="m 9,15.783067 c 0,0 0,3.716933 3,3.716933 2,0 3,-1.56517 3,-3.716933 C 14.91221,14.279276 14,12.5 11.229044,12 14,11.5 14.91221,9.720724 15,8.2169332 15,6.0651699 14,4.5 12,4.5 9,4.5 9,8.2169332 9,8.2169332"
       sodipodi:nodetypes="cscccsc" />
    <path
       id="path7"
       style="fill:none;stroke:#ff7f2a;stroke-width:0.963968;stroke-linecap:round;stroke-linejoin:miter;stroke-dasharray:none;stroke-opacity:1;paint-order:normal"
       d="m 14.999993,15.783067 c 0,0 0,3.716933 -3,3.716933 -2,0 -3,-1.56517 -3,-3.716933 V 8.2169332 c 0,-2.1517633 1,-3.7169332 3,-3.7169332 3,0 3,3.7169332 3,3.7169332"
       sodipodi:nodetypes="csccsc" />
    <path
       id="circle9"
       style="fill:none;stroke:#ff0000;stroke-linecap:round;stroke-linejoin:miter"
       d="m 17,17.5 c 0,1.104569 -0.895431,2 -2.000001,2 C 13.895431,19.5 13,18.604569 13,17.5 c 0,-1.104569 0.895431,-2 1.999999,-2 C 16.104569,15.5 17,16.395431 17,17.5 Z m -6,-11 c 0,1.1045695 -0.895431,2 -2,2 -1.1045693,0 -2,-0.8954305 -2,-2 0,-1.1045695 0.8954307,-2 2,-2 1.104569,0 2,0.8954305 2,2 z m -2,13 6,-15"
       sodipodi:nodetypes="sssssssssscc" />
    <path
       id="path10"
       style="fill:none;stroke:#00ff00;stroke-linecap:round;stroke-linejoin:miter"
       d="M 15,19.5 9,4.5 m 0,15 6,-15" />
    <path
       id="path8"
       style="fill:none;stroke:#ff0000;stroke-width:1;stroke-linecap:round;stroke-linejoin:round;stroke-dasharray:none;stroke-opacity:1;paint-order:normal"
       d="M 9,4.5 V 12 h 6 M 14,4.5 v 15"
       sodipodi:nodetypes="ccccc" />
    <path
       id="path13"
       style="fill:none;stroke:#0000ff;stroke-width:1;stroke-linecap:round;stroke-linejoin:round;stroke-dasharray:none;stroke-opacity:1;paint-order:normal"
       d="m 9,4.5 v 15 M 9,12 h 6 m 0,-7.5 v 15" />
    <path
       style="fill:none;stroke:#0000ff;stroke-width:1;stroke-linecap:round;stroke-linejoin:round;stroke-dasharray:none;stroke-opacity:1;paint-order:normal"
       d="m 17,17 v 0 c 0,1.5 -1,2.5 -2.5,2.5 C 13,19.5 12,18.5 12,17 v -2.5"
       id="path9" />
    <path
       id="path12"
       style="fill:none;stroke:#ff00ff;stroke-width:1;stroke-linecap:round;stroke-linejoin:round;stroke-dasharray:none;stroke-opacity:1;paint-order:normal"
       d="m 20,16 c 0,1.5 -1,2.5 -2.5,2.5 C 16,18.5 15,17.5 15,16 V 14.5 C 15,13 16,12 17.5,12 19,12 20,13 20,14.5 Z M 7,18 v -4.05 c 0,-5 0,-8.5 4.999936,-8.5 4.999936,0 4.999936,3.5 4.999936,8.5 V 18 M 9,16 C 9,17.5 8,18.5 6.5,18.5 5,18.5 4,17.5 4,16 V 14.5 C 4,13 5,12 6.5,12 8,12 9,13 9,14.5 Z"
       sodipodi:nodetypes="ssssssscssscsssssss" />
    <circle
       style="fill:none;stroke:#ff00ff;stroke-width:1;stroke-linecap:round;stroke-linejoin:miter;stroke-dasharray:none"
       id="path15"
       cx="12"
       cy="12"
       r="10" />
  </g>
</svg>
